PathFileType	4	(X/Y/Z)	/Users/niels/Desktop/University/Third Semester/Perception and Action/Exam/Gymnastics Motion Tracking/Code for Gym Tracking/Analyzed Data/Webcam_Backflip/id5_5_trajectory_Sports2D/id5_5_trajectory_Sports2D_px_person00.trc
DataRate	CameraRate	NumFrames	NumMarkers	Units	OrigDataRate	OrigDataStartFrame	OrigNumFrames
29.774436090225564	29.774436090225564	12	22	m	29.774436090225564	116	133
Frame#	Time	Hip			RHip			RKnee			RAnkle			RBigToe			RSmallToe			RHeel			LHip			LKnee			LAnkle			LBigToe			LSmallToe			LHeel			Neck			Head			Nose			RShoulder			RElbow			RWrist			LShoulder			LElbow			LWrist		
		X1	Y1	Z1	X2	Y2	Z2	X3	Y3	Z3	X4	Y4	Z4	X5	Y5	Z5	X6	Y6	Z6	X7	Y7	Z7	X8	Y8	Z8	X9	Y9	Z9	X10	Y10	Z10	X11	Y11	Z11	X12	Y12	Z12	X13	Y13	Z13	X14	Y14	Z14	X15	Y15	Z15	X16	Y16	Z16	X17	Y17	Z17	X18	Y18	Z18	X19	Y19	Z19	X20	Y20	Z20	X21	Y21	Z21	X22	Y22	Z22
116	3.8959595959595963	1.0304997237612326	-0.8910904445601541	0.0	0.9994367141383057	-0.8967527068956199	0.0	1.0096227784476295	-1.0154850124707788	0.0	1.018979775927555	-1.102441151879217	0.0	1.0113617015172565	-1.084224741835483	0.0	1.0008067838224597	-1.0791232226094114	0.0	1.0344377241255143	-1.0834545019983834	0.0	1.0627098955547696	-0.8898687801681586	0.0	1.083744938744243	-1.0089159007088309	0.0	1.0974744369574079	-1.0990531310297336	0.0	1.098223463433426	-1.1041843983578021	0.0	1.1150535040955574	-1.1003279599606874	0.0	1.098531849185177	-1.083786930940352	0.0	0.9963082026919228	-0.6914447560697154	0.0	0.9793918383175882	-0.6118580672091174	0.0	0.9888479889612267	-0.6617318478382941	0.0	0.9490816106517646	-0.7317449181843019	0.0	0.9332065554466912	-0.8176381122560128	0.0	0.9133385880794018	-0.8921493778288964	0.0	1.0556258472033553	-0.7130413263954046	0.0	1.09213503863799	-0.79472647359804	0.0	1.1249358866253825	-0.8724517695256724	0.0
117	3.9295454545454547	1.030729107400485	-0.9177198242421766	0.0	1.0001525018542157	-0.9232530193430786	0.0	1.0103556984604884	-1.0393118838704123	0.0	1.0182693465934034	-1.1187092008496966	0.0	1.011930060928195	-1.0893608783553717	0.0	1.0020175548113142	-1.084376200126179	0.0	1.0351842098077837	-1.09049745455256	0.0	1.0629900544164739	-0.9161390233035489	0.0	1.084006220256799	-1.0329124461650383	0.0	1.0968341883832953	-1.113107880260036	0.0	1.0959694878544457	-1.111023524252696	0.0	1.1136679937745653	-1.1078691476281244	0.0	1.0984592665397679	-1.0916703099220313	0.0	0.9968556528906451	-0.7172368522220289	0.0	0.9802957243158917	-0.6391719242215206	0.0	0.9894207858231753	-0.688808695367416	0.0	0.9498999617864894	-0.7575386895428659	0.0	0.9374194773424254	-0.8435229059336122	0.0	0.9227323598832146	-0.9171909477366126	0.0	1.0559320535455745	-0.7384662719407443	0.0	1.0906091600501202	-0.8196930831117084	0.0	1.1251005198312152	-0.8971076354924211	0.0
118	3.963131313131313	1.0280813576516992	-0.9283258850903373	0.0	0.9982628907685811	-0.9339215241260734	0.0	1.0095049250019776	-1.047209113136545	0.0	1.0178588604218437	-1.124249280593535	0.0	1.0123453637366973	-1.0909424299093533	0.0	1.002945178632988	-1.086129235509374	0.0	1.035746748989194	-1.0921181519076588	0.0	1.060098011397015	-0.926564181429456	0.0	1.082327104094718	-1.0404638700962465	0.0	1.0964643459563552	-1.1158957289445839	0.0	1.093913869754373	-1.1121575930902414	0.0	1.1127311892140275	-1.1094693017160824	0.0	1.098440276498122	-1.0938269565333798	0.0	0.9945446347644361	-0.7276430539163637	0.0	0.9779165611991157	-0.6508680117775021	0.0	0.9867304832437478	-0.7002025583306621	0.0	0.948138929784056	-0.7675941903034358	0.0	0.9402772590958725	-0.853226505822704	0.0	0.930971702559198	-0.9264820764800987	0.0	1.0533067773979066	-0.7482439179909256	0.0	1.0854980009937265	-0.8293744966499481	0.0	1.1191084977141803	-0.9066252044849298	0.0
119	3.996717171717172	1.0226362995332237	-0.9217127518787885	0.0	0.993709292466514	-0.9276126746867882	0.0	1.0068670844474625	-1.038667094049046	0.0	1.0179684820158903	-1.1185656453520538	0.0	1.0127741173275049	-1.0897995248172845	0.0	1.0036859230922341	-1.0852140838218427	0.0	1.0360100283279987	-1.0893073371710478	0.0	1.0541790972974314	-0.919995607486377	0.0	1.078604190977593	-1.0310106649019295	0.0	1.0963425393342885	-1.107998484821657	0.0	1.0924263516898267	-1.1084808021400174	0.0	1.1122411090214974	-1.1059304957906855	0.0	1.0985158407394562	-1.0908203441995823	0.0	0.9893798599377466	-0.7216276239716669	0.0	0.9721283150370889	-0.645746486952703	0.0	0.9807540800279049	-0.6946762174634626	0.0	0.9439170600785476	-0.7608138907797053	0.0	0.9409418389977514	-0.8457738973364021	0.0	0.936310948685186	-0.9191350957143247	0.0	1.0477006757293927	-0.7413599196144744	0.0	1.0774287843553785	-0.8229133494626992	0.0	1.1078654241988426	-0.9003632445047232	0.0
120	4.03030303030303	1.0145657786079265	-0.8992847381761044	0.0	0.9865492833358245	-0.9055941140668757	0.0	1.0022983192266113	-1.0153929847187804	0.0	1.018374973064382	-1.1022814326614279	0.0	1.013172108869327	-1.0851882159105328	0.0	1.0041340413627493	-1.0808989298116483	0.0	1.0357059045390802	-1.0815001622838287	0.0	1.0454346198669524	-0.8977228308629293	0.0	1.0725566007370195	-1.0063596054480686	0.0	1.095812709047906	-1.0907038379711502	0.0	1.0911820945185366	-1.0994181840580786	0.0	1.1115319908412618	-1.096649582268771	0.0	1.0982154703730609	-1.0816601088670081	0.0	0.98173897113401	-0.7005727939544687	0.0	0.963341964630286	-0.6251233366530329	0.0	0.9717216585112588	-0.6734533118076877	0.0	0.9376948992988583	-0.7385744439793265	0.0	0.9390324234088712	-0.8226474418357965	0.0	0.9375801074332323	-0.8963947308885204	0.0	1.0394678685608087	-0.7192717805984508	0.0	1.0673712894186707	-0.8015798446618968	0.0	1.0931400720218147	-0.8795953577150056	0.0
121	4.063888888888889	1.0041934809809594	-0.8644913646538721	0.0	0.9770308970854197	-0.8710841074231664	0.0	0.9958042815570531	-0.9806876520082694	0.0	1.0183676353672602	-1.0768056479588761	0.0	1.0132469504488428	-1.075132131241179	0.0	1.0039633828199328	-1.0712231330172792	0.0	1.0344684704243334	-1.0670348073201632	0.0	1.0341694506029209	-0.8630211801359565	0.0	1.0638796679078848	-0.9700931347503768	0.0	1.0937746725191833	-1.0649748159781538	0.0	1.0890179463700014	-1.083400518684671	0.0	1.109282993298872	-1.0801470619929912	0.0	1.096675559644852	-1.064596550658325	0.0	0.9722502323980823	-0.6677957695275425	0.0	0.9522895882976768	-0.5923492471963848	0.0	0.9600063627323636	-0.6398834424312918	0.0	0.930096112897836	-0.7042964279575491	0.0	0.9346820105430507	-0.7873297424930027	0.0	0.9343669929137238	-0.8612624219474844	0.0	1.029222611227454	-0.6854244923368382	0.0	1.0563347264445813	-0.76836899107752	0.0	1.0770856875713228	-0.8470831522559829	0.0
122	4.097474747474748	0.9920866558515105	-0.821738075252346	0.0	0.9657055368538169	-0.828319435799055	0.0	0.9875446985947915	-0.9385529380337264	0.0	1.0170326794352134	-1.043817397651398	0.0	1.0124479341287647	-1.0574845048604036	0.0	1.0026800483271017	-1.0540399719500082	0.0	1.0319590983141056	-1.0444361328596625	0.0	1.0209145333469622	-0.8201995956772334	0.0	1.0524478877183325	-0.9266003830622894	0.0	1.0890160057972211	-1.0317291507840922	0.0	1.0840076631729028	-1.0591935573572018	0.0	1.10371650104009	-1.0554386883409037	0.0	1.092912275550062	-1.0386858778493286	0.0	0.96160703622007	-0.6275977128065393	0.0	0.9397124757211228	-0.5518869067563019	0.0	0.946113915485949	-0.5985718804339513	0.0	0.9217526417370018	-0.6624823827508505	0.0	0.9284745710131648	-0.7443991088840031	0.0	0.9269598469277278	-0.8177659700915405	0.0	1.0176245956209378	-0.6442302448948949	0.0	1.0450839662978322	-0.727238113541461	0.0	1.0615075257695916	-0.8064399746822016	0.0
123	4.131060606060606	0.9790171329198929	-0.775427811049249	0.0	0.9533970990500251	-0.7816412985710591	0.0	0.9778159302130612	-0.8929056204642294	0.0	1.013778434330481	-1.0053893527817372	0.0	1.0100256635319447	-1.0315016983945646	0.0	0.9997617737607284	-1.0285516758927267	0.0	1.0279812257730159	-1.0138663640601	0.0	1.0064093494947612	-0.7736620566957526	0.0	1.0384489620322008	-0.8800896656106882	0.0	1.0806815106288643	-0.9929355011501915	0.0	1.0742393902434175	-1.0273485975402188	0.0	1.093278118849583	-1.0233742103561936	0.0	1.0862193082825113	-1.0050733758228099	0.0	0.9503722525867955	-0.5842368542774903	0.0	0.9260899916831519	-0.5082948777075595	0.0	0.9306807045432199	-0.5542368533216111	0.0	0.913171454426999	-0.6176211786677797	0.0	0.9212138277839335	-0.6984913638557245	0.0	0.9161783781715515	-0.7701723084380812	0.0	1.0052141150847873	-0.600026593602216	0.0	1.033960950441595	-0.6822853318086315	0.0	1.0472616905010663	-0.7614788372868784	0.0
124	4.164646464646465	0.9657604054309705	-0.7293262137834524	0.0	0.9409739496977587	-0.7348276729815443	0.0	0.9670297568011034	-0.8471229412637815	0.0	1.0085473240423035	-0.9642101948542565	0.0	1.005153243824457	-0.998787274626226	0.0	0.9947733184267009	-0.996215571784675	0.0	1.022494337348501	-0.9775312127443402	0.0	0.9914011829711756	-0.7272236835950778	0.0	1.0224163517029599	-0.834032014473502	0.0	1.068635358678563	-0.9517208893488054	0.0	1.0589969091846287	-0.9905169383485555	0.0	1.0775203624545289	-0.9867323089118379	0.0	1.0763880212358041	-0.9668472172551301	0.0	0.9388828720779389	-0.5412428805988004	0.0	0.9115795834834968	-0.4654481357307055	0.0	0.9143772992175275	-0.5108342240943906	0.0	0.9046714217713105	-0.5733813355297689	0.0	0.9135641030647067	-0.6534422373800804	0.0	0.9031371085710885	-0.7224019341914376	0.0	0.9923182107277551	-0.5563320988100189	0.0	1.0228869146751736	-0.6370919556305588	0.0	1.0342176276171025	-0.7156779829838014	0.0
125	4.1982323232323235	0.9528963556418524	-0.6861755161283261	0.0	0.9291175134638416	-0.6906788696873355	0.0	0.9556583975710735	-0.8038086693852047	0.0	1.0015710196867305	-0.9231408813791887	0.0	0.9971012441618478	-0.9626392871841644	0.0	0.9873601435128826	-0.9601433434129398	0.0	1.0155346155900766	-0.9387687811649961	0.0	0.976460200954481	-0.6836786967855432	0.0	1.005152145219711	-0.7910015708080608	0.0	1.0534887138237516	-0.9113657617637088	0.0	1.03919676356154	-0.9523066914875092	0.0	1.0573717090060268	-0.9490117492096458	0.0	1.06364546386106	-0.9277329568865199	0.0	0.9272731238575924	-0.5011123674174339	0.0	0.8962499156781678	-0.4260629823236692	0.0	0.8977881457575632	-0.4710944534605809	0.0	0.8963985670731976	-0.5322756688824376	0.0	0.9058067177020457	-0.6118680858799539	0.0	0.8889904320220553	-0.677642968943996	0.0	0.9790199780878235	-0.5154995261429641	0.0	1.011525282776784	-0.5943118421683714	0.0	1.0216749219548773	-0.6717957103632181	0.0
126	4.231818181818182	0.9407450600424426	-0.6475478335888368	0.0	0.9182384796523245	-0.6508709770778898	0.0	0.9441176244190933	-0.7646208650280559	0.0	0.993063418554091	-0.8845059010499664	0.0	0.9855644909441198	-0.9264213629825028	0.0	0.9773329077103368	-0.9236410533046305	0.0	1.0071019243371275	-0.9008372392192462	0.0	0.9619477189319111	-0.6446450631589395	0.0	0.9874971329637137	-0.7525768200311697	0.0	1.0363110217481104	-0.8742851688434622	0.0	1.0166975424601177	-0.9157644569745192	0.0	1.0345490960388246	-0.9130768259376858	0.0	1.0485536571528002	-0.8908245960003244	0.0	0.9155493189662233	-0.4652424907955276	0.0	0.8803302603813468	-0.391511623864969	0.0	0.8813854853996163	-0.4364017463131209	0.0	0.8883648954003798	-0.4957057192369005	0.0	0.8979170530661502	-0.575171564499299	0.0	0.8747730277854469	-0.6380170261509447	0.0	0.9652031819070052	-0.4787758459754381	0.0	0.9994687115279708	-0.5555666885213767	0.0	1.0087867793299947	-0.631684366214609	0.0
127	4.26540404040404	0.9293744821471981	-0.6139775400229255	0.0	0.9084616565033751	-0.6160957109823062	0.0	0.9326521959309413	-0.7302843227799197	0.0	0.9831436478412008	-0.8497706155587937	0.0	0.9709676542028947	-0.8924259863726504	0.0	0.9649184837644114	-0.8891786920505239	0.0	0.9971173606871997	-0.8661839663298861	0.0	0.9480267965495979	-0.6107218892596643	0.0	0.9700424440095011	-0.7193911922353452	0.0	1.0182275699081136	-0.8417125590703538	0.0	0.9933161839633265	-0.8826357518820123	0.0	1.0107532343597503	-0.8805914802959572	0.0	1.0319153974322102	-0.8579893678700204	0.0	0.9036852416442606	-0.434107695899808	0.0	0.8642087065257241	-0.3620961649138421	0.0	0.8655201261956366	-0.40708345032863846	0.0	0.8805095520841377	-0.4641909871544385	0.0	0.8898325129281737	-0.5437891646534564	0.0	0.8613395783403829	-0.6044294438302209	0.0	0.9506618487128861	-0.44660661078277625	0.0	0.986353609924906	-0.5215695096633738	0.0	0.9948037565005127	-0.5963010209184127	0.0
